<svg width="254" height="248" viewBox="0 0 254 248" fill="none" xmlns="http://www.w3.org/2000/svg">
<path d="M100.48 163.64L86.2 186.84L113.59 219.37H141.21L166.96 186.29L151.02 163.64H100.48Z" fill="#3F4553"/>
<path d="M86.1999 186.84C86.1999 186.84 24.7699 191.59 9.35993 207.68C-6.05007 223.77 1.19993 241.24 16.2099 241.24C43.8399 241.24 102.3 242.93 129.96 241.24L131.61 203.57L86.1999 186.84Z" fill="#3F4553"/>
<path d="M165.37 186.04C165.37 186.04 229.7 191.59 245.11 207.68C260.52 223.77 251.64 234.43 238.26 241.24C219.43 250.83 151.56 249.24 116.36 237.59L122.87 203.57L165.37 186.04Z" fill="#3F4553"/>
<path d="M168.2 217.64L163.85 206.4L169.27 203.99C169.27 203.99 168.52 197.34 175.15 196.06C181.78 194.78 189.68 199.06 197.38 195.61C204.48 192.43 213.17 189.5 221.28 193.9C222.48 194.55 223.04 195.98 222.63 197.28L222.6 197.38C222.19 198.69 220.91 199.5 219.54 199.36C216.68 199.07 211.58 199.13 206.54 202.18C197.85 207.46 168.2 217.64 168.2 217.64Z" fill="#FEBBA0"/>
<path d="M218.81 218.28C218.81 218.28 175.88 210.65 85.45 209.47L76.72 221.31C76.72 221.31 99.22 234.17 120.34 238.82C141.46 243.47 214.37 258.11 246.93 235.56L218.81 218.28Z" fill="#3F4553"/>
<path d="M120.34 238.83C98.6899 233.83 76.0399 221.01 76.0399 221.01L77.3899 218.72" stroke="#6E758F" stroke-width="1.5925" stroke-miterlimit="10" stroke-linecap="round"/>
<path d="M85.45 209.47C85.45 209.47 184.8 207.2 211.31 222.58" stroke="#6E758F" stroke-width="1.5925" stroke-miterlimit="10" stroke-linecap="round"/>
<path d="M36.6799 215.91C36.6799 215.91 54.8199 207.41 67.2199 212.98" stroke="#6E758F" stroke-width="1.5925" stroke-miterlimit="10" stroke-linecap="round"/>
<path d="M78.81 219.35L85.44 209.25L78.81 205.66C78.81 205.66 76.49 199.85 69.99 198.05C63.48 196.26 58.85 199.15 51.44 195.11C44.61 191.38 36.17 187.79 27.75 191.54C26.51 192.09 25.83 193.47 26.14 194.8L26.16 194.9C26.47 196.24 27.68 197.14 29.05 197.11C31.92 197.04 37.01 197.5 41.79 200.94C50.04 206.88 78.81 219.35 78.81 219.35Z" fill="#FEBBA0"/>
<path d="M135.89 209.83L163.05 207.16" stroke="#6E758F" stroke-width="1.5925" stroke-miterlimit="10" stroke-linecap="round"/>
<path d="M101.35 198.06L116.5 209.03" stroke="#6E758F" stroke-width="1.5925" stroke-miterlimit="10" stroke-linecap="round"/>
<path d="M97.4399 48.7701C98.0799 55.0301 103.53 59.5901 109.61 58.9701C115.69 58.3501 120.1 52.7701 119.46 46.5201C118.82 40.2601 113.37 35.7001 107.29 36.3201C101.22 36.9301 96.8099 42.5101 97.4399 48.7701Z" fill="#3F4553"/>
<path d="M120.15 53.3202C120.15 53.3202 100.83 50.4002 97.7899 32.1702C95.1099 16.0602 105.92 3.15017 117.77 0.920166C117.78 0.920166 146.25 44.8002 120.15 53.3202Z" fill="#3F4553"/>
<path d="M120.59 2.65021C119.17 3.35021 117.82 4.27021 116.59 5.46021C105.58 16.0502 112.55 36.6102 122.41 45.8902C127.87 51.0202 135.85 53.4102 142.82 50.7902C153.01 46.9602 156.2 35.4202 154.13 25.1402C152.59 17.4802 148.34 10.2502 142.07 5.75021C135.8 1.26021 127.33 -0.63979 120.59 2.65021Z" fill="#FDBCA0"/>
<path d="M118.76 39.6902C116.83 41.6002 113.47 42.3802 110.89 41.4702C108.31 40.5602 106.19 38.1302 105.52 35.3102C104.92 32.7802 105.57 29.9002 107.43 28.3502C109.29 26.8002 112.64 26.9002 114.23 28.9102L118.76 39.6902Z" fill="#FDBCA0"/>
<path d="M115.94 32.9702L117.97 69.3102C118.24 76.0302 123.69 81.3702 130.41 81.5002C138.17 81.6602 144.26 74.8802 143.27 67.1802L139.17 33.4402L115.94 32.9702Z" fill="#FDBCA0"/>
<path d="M141.93 56.2201L141.42 51.2401C141.42 51.2401 131.42 54.3101 122.41 45.8801C122.41 45.8901 127.6 55.3601 141.93 56.2201Z" fill="#DF8370"/>
<path d="M111.97 27.4802C124.99 26.8102 136.87 18.0702 143.43 6.81021C143.43 6.81021 131.45 -4.55979 113.94 2.09021C99.4299 7.59021 111.97 27.4802 111.97 27.4802Z" fill="#3F4553"/>
<path d="M113.4 35.8402C111.9 35.9902 110.59 35.1802 110.47 34.0302C110.38 33.1602 110.99 32.3502 111.93 31.9302" stroke="#444359" stroke-width="1.1144" stroke-miterlimit="10" stroke-linecap="round"/>
<path d="M144.68 33.0002C144.98 32.0902 145.5 31.3702 146.08 30.6902L146.36 31.5702C145.7 31.3202 145.34 30.9402 144.97 30.5702C144.62 30.1802 144.31 29.7902 144.03 29.3702C143.47 28.5402 143 27.6602 142.66 26.7302C143.36 27.4402 144 28.1702 144.67 28.8702C145.01 29.2102 145.33 29.5602 145.68 29.8602C146.01 30.1502 146.4 30.4502 146.67 30.5202L147.48 30.7102L146.95 31.4002C146.41 32.1102 145.81 32.7702 144.98 33.2502C144.88 33.3102 144.76 33.2702 144.7 33.1802C144.67 33.1102 144.67 33.0502 144.68 33.0002Z" fill="#444359"/>
<path d="M147.61 36.1802C147.21 37.0002 146.53 37.7102 145.65 38.1402C144.78 38.5902 143.7 38.6802 142.74 38.4002C141.76 38.1302 141 37.4902 140.35 36.8302C140.06 36.4702 139.77 36.1002 139.53 35.7202C139.32 35.3102 139.1 34.9102 138.94 34.4902C139.31 34.7702 139.63 35.0702 139.95 35.3702L140.94 36.1902C141.64 36.6502 142.3 37.1502 143.06 37.3302C143.79 37.5602 144.57 37.5502 145.34 37.3402C146.1 37.1202 146.86 36.6902 147.61 36.1802Z" fill="#444359"/>
<path d="M137.14 23.11C137.53 24.27 137.75 25.47 137.67 26.76C137.62 27.39 137.47 28.08 137 28.69C136.52 29.31 135.71 29.58 135 29.56C134.27 29.55 133.55 29.23 133.06 28.78C132.55 28.33 132.15 27.81 131.85 27.26C131.25 26.15 130.87 24.99 130.68 23.77C130.65 23.58 130.78 23.4 130.97 23.36C131.15 23.33 131.31 23.44 131.36 23.6L131.37 23.62C131.71 24.7 132.16 25.79 132.74 26.73C133.32 27.64 134.11 28.48 135.04 28.45C135.5 28.47 135.93 28.35 136.19 28.02C136.48 27.7 136.62 27.18 136.7 26.65C136.85 25.58 136.75 24.4 136.57 23.27V23.25C136.54 23.09 136.66 22.93 136.82 22.91C136.95 22.89 137.09 22.98 137.14 23.11Z" fill="#444359"/>
<path d="M151.66 20.8401C151.99 21.8201 152.17 22.8201 152.15 23.8901C152.14 24.4201 152.04 25.0001 151.7 25.5501C151.37 26.1301 150.63 26.4901 149.99 26.4601C149.32 26.4501 148.71 26.1001 148.32 25.6901C147.92 25.2701 147.61 24.8201 147.38 24.3401C146.93 23.3801 146.65 22.4001 146.51 21.3701C146.48 21.1801 146.62 21.0001 146.82 20.9701C146.99 20.9501 147.15 21.0501 147.2 21.2101L147.21 21.2301C147.5 22.1301 147.85 23.0501 148.3 23.8501C148.75 24.6301 149.36 25.3801 150.03 25.3401C150.37 25.3501 150.64 25.2501 150.82 24.9701C151.02 24.6901 151.12 24.2601 151.18 23.8101C151.28 22.9101 151.2 21.9201 151.09 20.9801V20.9601C151.07 20.8001 151.19 20.6501 151.35 20.6201C151.48 20.6201 151.62 20.7101 151.66 20.8401Z" fill="#444359"/>
<path d="M162.46 72.6104C162.37 66.5104 142.59 61.6304 142.59 61.6304C141.35 63.0004 139.22 65.3104 130.25 65.3104C121.67 65.3104 118.24 63.0904 116.9 61.6304H108.41C106.52 61.6304 104.79 62.7104 104 64.4304C86.9899 101.64 96.5499 143.2 100.47 163.63C100.83 165.51 136.33 164.24 152.34 165.51C155.8 165.8 162.8 94.7804 162.46 72.6104Z" fill="#FEE6C6"/>
<path d="M121.15 125.23C122.91 111.01 125.06 102.48 126.71 105.28C128.17 107.76 127.36 120.2 125.17 132.2C125.18 132.2 120.4 131.32 121.15 125.23Z" fill="#FEBBA0"/>
<path d="M132.77 125.23C131.01 111.01 128.86 102.48 127.21 105.28C125.75 107.76 126.56 120.2 128.75 132.2C128.74 132.2 133.52 131.32 132.77 125.23Z" fill="#FEBBA0"/>
<path d="M191.39 121.7H169.04L172.59 144.4L132.03 124.61C131.89 123.09 131.7 121.21 131.47 119.22C129.94 119.22 128.4 119.22 126.87 119.2C126.88 120.93 126.91 122.1 126.91 122.1C126.91 122.1 126.12 132.54 127.93 136.02C131.37 142.64 166.56 163.96 176.33 166.49C176.94 166.65 177.55 166.77 178.16 166.85C187.59 168.18 193.84 162.89 193.77 153.37L191.39 121.7Z" fill="#FEBBA0"/>
<path d="M122.05 119.12C121.7 121.36 121.39 123.52 121.15 125.23L81.7599 143.47L83.4199 121.71H61.0699L58.6999 153.4C58.6399 162.92 64.8899 168.2 74.3099 166.88C74.9199 166.79 75.5299 166.67 76.1399 166.52C85.9099 163.99 118.64 146.3 125.63 135.98C127.7 132.93 126.72 122.66 126.72 122.66C126.72 122.66 126.72 121.24 126.68 119.22C125.14 119.19 123.6 119.16 122.05 119.12Z" fill="#FEBBA0"/>
<path d="M89.1399 134.12C97.8799 108.27 97.8099 108.25 108.54 61.6404C101.36 62.1304 100.62 60.9604 94.9599 63.9004C77.9799 72.7204 61.9899 101.69 57.2799 134.12H89.1399Z" fill="#FEE6C6"/>
<path d="M166.96 131.57C161.82 113.26 142.59 61.6403 142.59 61.6403C161.82 60.9903 188.06 86.0603 194.34 128.22L166.96 131.57Z" fill="#FEE6C6"/>
<path d="M162.47 91.1404L158.42 124.42" stroke="#EED2AD" stroke-width="1.5925" stroke-miterlimit="10" stroke-linecap="round"/>
<path d="M92.8199 96.6003L96.0399 132.2" stroke="#EED2AD" stroke-width="1.5925" stroke-miterlimit="10" stroke-linecap="round"/>
</svg>
